{
    "asset" : {
        "generator" : "Khronos glTF Blender I/O v1.6.16",
        "version" : "2.0"
    },
    "scene" : 0,
    "scenes" : [
        {
            "name" : "Scene",
            "nodes" : [
                6
            ]
        }
    ],
    "nodes" : [
        {
            "mesh" : 0,
            "name" : "Head"
        },
        {
            "children" : [
                0
            ],
            "mesh" : 1,
            "name" : "Body"
        },
        {
            "mesh" : 2,
            "name" : "Cube",
            "translation" : [
                0.49000000953674316,
                -1.9799998998641968,
                0
            ]
        },
        {
            "children" : [
                2
            ],
            "mesh" : 3,
            "name" : "RightLowerLeg",
            "translation" : [
                0,
                -0.2899913787841797,
                2.6226043701171875e-06
            ]
        },
        {
            "children" : [
                3
            ],
            "mesh" : 4,
            "name" : "RightKnee",
            "translation" : [
                0,
                2.889991283416748,
                0.9999973773956299
            ]
        },
        {
            "children" : [
                4
            ],
            "mesh" : 5,
            "name" : "RightUpperLeg"
        },
        {
            "children" : [
                1,
                5
            ],
            "mesh" : 6,
            "name" : "Center"
        }
    ],
    "materials" : [
        {
            "doubleSided" : true,
            "name" : "Joint",
            "pbrMetallicRoughness" : {
                "baseColorFactor" : [
                    0.8000000715255737,
                    0.19550317525863647,
                    0.06352794915437698,
                    1
                ],
                "metallicFactor" : 0,
                "roughnessFactor" : 0.5
            }
        },
        {
            "doubleSided" : true,
            "name" : "Material",
            "pbrMetallicRoughness" : {
                "baseColorFactor" : [
                    0.22109198570251465,
                    0.011436465196311474,
                    0.8000000715255737,
                    1
                ],
                "metallicFactor" : 0,
                "roughnessFactor" : 0.4000000059604645
            }
        }
    ],
    "meshes" : [
        {
            "name" : "Sphere",
            "primitives" : [
                {
                    "attributes" : {
                        "POSITION" : 0,
                        "NORMAL" : 1,
                        "TEXCOORD_0" : 2
                    },
                    "indices" : 3,
                    "material" : 0
                }
            ]
        },
        {
            "name" : "Cube",
            "primitives" : [
                {
                    "attributes" : {
                        "POSITION" : 4,
                        "NORMAL" : 5,
                        "TEXCOORD_0" : 6
                    },
                    "indices" : 7,
                    "material" : 1
                }
            ]
        },
        {
            "name" : "Cube.004",
            "primitives" : [
                {
                    "attributes" : {
                        "POSITION" : 8,
                        "NORMAL" : 9,
                        "TEXCOORD_0" : 10
                    },
                    "indices" : 11,
                    "material" : 1
                }
            ]
        },
        {
            "name" : "Cube.003",
            "primitives" : [
                {
                    "attributes" : {
                        "POSITION" : 12,
                        "NORMAL" : 13,
                        "TEXCOORD_0" : 14
                    },
                    "indices" : 11,
                    "material" : 1
                }
            ]
        },
        {
            "name" : "Sphere.001",
            "primitives" : [
                {
                    "attributes" : {
                        "POSITION" : 15,
                        "NORMAL" : 16,
                        "TEXCOORD_0" : 17
                    },
                    "indices" : 18,
                    "material" : 0
                }
            ]
        },
        {
            "name" : "Cube.002",
            "primitives" : [
                {
                    "attributes" : {
                        "POSITION" : 19,
                        "NORMAL" : 20,
                        "TEXCOORD_0" : 21
                    },
                    "indices" : 11,
                    "material" : 1
                }
            ]
        },
        {
            "name" : "Cube.001",
            "primitives" : [
                {
                    "attributes" : {
                        "POSITION" : 22,
                        "NORMAL" : 23,
                        "TEXCOORD_0" : 24
                    },
                    "indices" : 11,
                    "material" : 1
                }
            ]
        }
    ],
    "accessors" : [
        {
            "bufferView" : 0,
            "componentType" : 5126,
            "count" : 1984,
            "max" : [
                0.9999997019767761,
                10.969999313354492,
                0.9999994039535522
            ],
            "min" : [
                -0.9999990463256836,
                8.969999313354492,
                -0.9999987483024597
            ],
            "type" : "VEC3"
        },
        {
            "bufferView" : 1,
            "componentType" : 5126,
            "count" : 1984,
            "type" : "VEC3"
        },
        {
            "bufferView" : 2,
            "componentType" : 5126,
            "count" : 1984,
            "type" : "VEC2"
        },
        {
            "bufferView" : 3,
            "componentType" : 5123,
            "count" : 2880,
            "type" : "SCALAR"
        },
        {
            "bufferView" : 4,
            "componentType" : 5126,
            "count" : 24,
            "max" : [
                1,
                9.199999809265137,
                2
            ],
            "min" : [
                -1,
                5.199999809265137,
                -2
            ],
            "type" : "VEC3"
        },
        {
            "bufferView" : 5,
            "componentType" : 5126,
            "count" : 24,
            "type" : "VEC3"
        },
        {
            "bufferView" : 6,
            "componentType" : 5126,
            "count" : 24,
            "type" : "VEC2"
        },
        {
            "bufferView" : 7,
            "componentType" : 5123,
            "count" : 36,
            "type" : "SCALAR"
        },
        {
            "bufferView" : 8,
            "componentType" : 5126,
            "count" : 24,
            "max" : [
                1,
                0,
                0.5
            ],
            "min" : [
                -1,
                -0.800000011920929,
                -0.5
            ],
            "type" : "VEC3"
        },
        {
            "bufferView" : 9,
            "componentType" : 5126,
            "count" : 24,
            "type" : "VEC3"
        },
        {
            "bufferView" : 10,
            "componentType" : 5126,
            "count" : 24,
            "type" : "VEC2"
        },
        {
            "bufferView" : 11,
            "componentType" : 5123,
            "count" : 36,
            "type" : "SCALAR"
        },
        {
            "bufferView" : 12,
            "componentType" : 5126,
            "count" : 24,
            "max" : [
                0.5,
                0,
                0.5
            ],
            "min" : [
                -0.5,
                -1.9999998807907104,
                -0.5
            ],
            "type" : "VEC3"
        },
        {
            "bufferView" : 13,
            "componentType" : 5126,
            "count" : 24,
            "type" : "VEC3"
        },
        {
            "bufferView" : 14,
            "componentType" : 5126,
            "count" : 24,
            "type" : "VEC2"
        },
        {
            "bufferView" : 15,
            "componentType" : 5126,
            "count" : 1984,
            "max" : [
                0.6999996304512024,
                0.7000000476837158,
                0.6999995708465576
            ],
            "min" : [
                -0.6999995112419128,
                -0.7000000476837158,
                -0.6999990940093994
            ],
            "type" : "VEC3"
        },
        {
            "bufferView" : 16,
            "componentType" : 5126,
            "count" : 1984,
            "type" : "VEC3"
        },
        {
            "bufferView" : 17,
            "componentType" : 5126,
            "count" : 1984,
            "type" : "VEC2"
        },
        {
            "bufferView" : 18,
            "componentType" : 5123,
            "count" : 2880,
            "type" : "SCALAR"
        },
        {
            "bufferView" : 19,
            "componentType" : 5126,
            "count" : 24,
            "max" : [
                0.5,
                4.880000114440918,
                1.5
            ],
            "min" : [
                -0.5,
                2.880000114440918,
                0.5
            ],
            "type" : "VEC3"
        },
        {
            "bufferView" : 20,
            "componentType" : 5126,
            "count" : 24,
            "type" : "VEC3"
        },
        {
            "bufferView" : 21,
            "componentType" : 5126,
            "count" : 24,
            "type" : "VEC2"
        },
        {
            "bufferView" : 22,
            "componentType" : 5126,
            "count" : 24,
            "max" : [
                1.159999966621399,
                5.670000076293945,
                2.1599998474121094
            ],
            "min" : [
                -1.159999966621399,
                4.869999885559082,
                -2.1599998474121094
            ],
            "type" : "VEC3"
        },
        {
            "bufferView" : 23,
            "componentType" : 5126,
            "count" : 24,
            "type" : "VEC3"
        },
        {
            "bufferView" : 24,
            "componentType" : 5126,
            "count" : 24,
            "type" : "VEC2"
        }
    ],
    "bufferViews" : [
        {
            "buffer" : 0,
            "byteLength" : 23808,
            "byteOffset" : 0
        },
        {
            "buffer" : 0,
            "byteLength" : 23808,
            "byteOffset" : 23808
        },
        {
            "buffer" : 0,
            "byteLength" : 15872,
            "byteOffset" : 47616
        },
        {
            "buffer" : 0,
            "byteLength" : 5760,
            "byteOffset" : 63488
        },
        {
            "buffer" : 0,
            "byteLength" : 288,
            "byteOffset" : 69248
        },
        {
            "buffer" : 0,
            "byteLength" : 288,
            "byteOffset" : 69536
        },
        {
            "buffer" : 0,
            "byteLength" : 192,
            "byteOffset" : 69824
        },
        {
            "buffer" : 0,
            "byteLength" : 72,
            "byteOffset" : 70016
        },
        {
            "buffer" : 0,
            "byteLength" : 288,
            "byteOffset" : 70088
        },
        {
            "buffer" : 0,
            "byteLength" : 288,
            "byteOffset" : 70376
        },
        {
            "buffer" : 0,
            "byteLength" : 192,
            "byteOffset" : 70664
        },
        {
            "buffer" : 0,
            "byteLength" : 72,
            "byteOffset" : 70856
        },
        {
            "buffer" : 0,
            "byteLength" : 288,
            "byteOffset" : 70928
        },
        {
            "buffer" : 0,
            "byteLength" : 288,
            "byteOffset" : 71216
        },
        {
            "buffer" : 0,
            "byteLength" : 192,
            "byteOffset" : 71504
        },
        {
            "buffer" : 0,
            "byteLength" : 23808,
            "byteOffset" : 71696
        },
        {
            "buffer" : 0,
            "byteLength" : 23808,
            "byteOffset" : 95504
        },
        {
            "buffer" : 0,
            "byteLength" : 15872,
            "byteOffset" : 119312
        },
        {
            "buffer" : 0,
            "byteLength" : 5760,
            "byteOffset" : 135184
        },
        {
            "buffer" : 0,
            "byteLength" : 288,
            "byteOffset" : 140944
        },
        {
            "buffer" : 0,
            "byteLength" : 288,
            "byteOffset" : 141232
        },
        {
            "buffer" : 0,
            "byteLength" : 192,
            "byteOffset" : 141520
        },
        {
            "buffer" : 0,
            "byteLength" : 288,
            "byteOffset" : 141712
        },
        {
            "buffer" : 0,
            "byteLength" : 288,
            "byteOffset" : 142000
        },
        {
            "buffer" : 0,
            "byteLength" : 192,
            "byteOffset" : 142288
        }
    ],
    "buffers" : [
        {
            "byteLength" : 142480,
            "uri" : "data:application/octet-stream;base64,"
        }
    ]
}
