{
    "asset" : {
        "generator" : "Khronos glTF Blender I/O v1.6.16",
        "version" : "2.0"
    },
    "scene" : 0,
    "scenes" : [
        {
            "name" : "Scene",
            "nodes" : [
                7
            ]
        }
    ],
    "nodes" : [
        {
            "mesh" : 0,
            "name" : "Barandas",
            "translation" : [
                -0.0073795318603515625,
                2.7608871459960938,
                -0.35649776458740234
            ]
        },
        {
            "mesh" : 1,
            "name" : "Mascaron",
            "translation" : [
                -0.0411626398563385,
                0.8331885933876038,
                13.50289535522461
            ]
        },
        {
            "mesh" : 2,
            "name" : "Corona",
            "translation" : [
                -0.001631319522857666,
                -0.2750062942504883,
                0.000308990478515625
            ]
        },
        {
            "children" : [
                2
            ],
            "mesh" : 3,
            "name" : "PuntaMastil",
            "translation" : [
                0.009704552590847015,
                5.230058670043945,
                -0.000186920166015625
            ]
        },
        {
            "mesh" : 4,
            "name" : "Vela",
            "translation" : [
                0.04398655891418457,
                -3.6596996784210205,
                1.0677099227905273
            ]
        },
        {
            "children" : [
                4
            ],
            "mesh" : 5,
            "name" : "SoporteVela",
            "translation" : [
                -0.003137923777103424,
                3.736156702041626,
                0.3323078155517578
            ]
        },
        {
            "children" : [
                3,
                5
            ],
            "mesh" : 6,
            "name" : "Mastil",
            "translation" : [
                -0.0073794350028038025,
                3.0990021228790283,
                -1.75592041015625
            ]
        },
        {
            "children" : [
                0,
                1,
                6
            ],
            "mesh" : 7,
            "name" : "Cuerpo",
            "translation" : [
                0,
                -0.6485447883605957,
                -9.215658187866211
            ]
        }
    ],
    "meshes" : [
        {
            "name" : "BarandasMesh",
            "primitives" : [
                {
                    "attributes" : {
                        "POSITION" : 0,
                        "NORMAL" : 1,
                        "TEXCOORD_0" : 2
                    },
                    "indices" : 3
                }
            ]
        },
        {
            "name" : "MascaronMesh",
            "primitives" : [
                {
                    "attributes" : {
                        "POSITION" : 4,
                        "NORMAL" : 5,
                        "TEXCOORD_0" : 6
                    },
                    "indices" : 7
                }
            ]
        },
        {
            "name" : "CoronaMesh",
            "primitives" : [
                {
                    "attributes" : {
                        "POSITION" : 8,
                        "NORMAL" : 9,
                        "TEXCOORD_0" : 10
                    },
                    "indices" : 11
                }
            ]
        },
        {
            "name" : "PuntaMastilMesh",
            "primitives" : [
                {
                    "attributes" : {
                        "POSITION" : 12,
                        "NORMAL" : 13,
                        "TEXCOORD_0" : 14
                    },
                    "indices" : 15
                }
            ]
        },
        {
            "name" : "VelaMesh",
            "primitives" : [
                {
                    "attributes" : {
                        "POSITION" : 16,
                        "NORMAL" : 17,
                        "TEXCOORD_0" : 18
                    },
                    "indices" : 19
                }
            ]
        },
        {
            "name" : "SoporteVelaMesh",
            "primitives" : [
                {
                    "attributes" : {
                        "POSITION" : 20,
                        "NORMAL" : 21,
                        "TEXCOORD_0" : 22
                    },
                    "indices" : 23
                }
            ]
        },
        {
            "name" : "MastiMesh",
            "primitives" : [
                {
                    "attributes" : {
                        "POSITION" : 24,
                        "NORMAL" : 25,
                        "TEXCOORD_0" : 26
                    },
                    "indices" : 27
                }
            ]
        },
        {
            "name" : "CuerpoMesh",
            "primitives" : [
                {
                    "attributes" : {
                        "POSITION" : 28,
                        "NORMAL" : 29,
                        "TEXCOORD_0" : 30
                    },
                    "indices" : 31
                }
            ]
        }
    ],
    "accessors" : [
        {
            "bufferView" : 0,
            "componentType" : 5126,
            "count" : 474,
            "max" : [
                4.3064165115356445,
                1.9504857063293457,
                10.118483543395996
            ],
            "min" : [
                -4.3064165115356445,
                -1.9504857063293457,
                -10.118483543395996
            ],
            "type" : "VEC3"
        },
        {
            "bufferView" : 1,
            "componentType" : 5126,
            "count" : 474,
            "type" : "VEC3"
        },
        {
            "bufferView" : 2,
            "componentType" : 5126,
            "count" : 474,
            "type" : "VEC2"
        },
        {
            "bufferView" : 3,
            "componentType" : 5123,
            "count" : 792,
            "type" : "SCALAR"
        },
        {
            "bufferView" : 4,
            "componentType" : 5126,
            "count" : 192,
            "max" : [
                0.558391809463501,
                1.4992685317993164,
                4.043612480163574
            ],
            "min" : [
                -0.558391809463501,
                -1.4992685317993164,
                -4.043612480163574
            ],
            "type" : "VEC3"
        },
        {
            "bufferView" : 5,
            "componentType" : 5126,
            "count" : 192,
            "type" : "VEC3"
        },
        {
            "bufferView" : 6,
            "componentType" : 5126,
            "count" : 192,
            "type" : "VEC2"
        },
        {
            "bufferView" : 7,
            "componentType" : 5123,
            "count" : 372,
            "type" : "SCALAR"
        },
        {
            "bufferView" : 8,
            "componentType" : 5126,
            "count" : 448,
            "max" : [
                1.8531969785690308,
                0.8048148155212402,
                1.8531970977783203
            ],
            "min" : [
                -1.8531969785690308,
                -0.8048148155212402,
                -1.853196144104004
            ],
            "type" : "VEC3"
        },
        {
            "bufferView" : 9,
            "componentType" : 5126,
            "count" : 448,
            "type" : "VEC3"
        },
        {
            "bufferView" : 10,
            "componentType" : 5126,
            "count" : 448,
            "type" : "VEC2"
        },
        {
            "bufferView" : 11,
            "componentType" : 5123,
            "count" : 756,
            "type" : "SCALAR"
        },
        {
            "bufferView" : 12,
            "componentType" : 5126,
            "count" : 24,
            "max" : [
                0.22107796370983124,
                1.066016674041748,
                0.22107791900634766
            ],
            "min" : [
                -0.22107796370983124,
                -1.066016674041748,
                -0.22107791900634766
            ],
            "type" : "VEC3"
        },
        {
            "bufferView" : 13,
            "componentType" : 5126,
            "count" : 24,
            "type" : "VEC3"
        },
        {
            "bufferView" : 14,
            "componentType" : 5126,
            "count" : 24,
            "type" : "VEC2"
        },
        {
            "bufferView" : 15,
            "componentType" : 5123,
            "count" : 36,
            "type" : "SCALAR"
        },
        {
            "bufferView" : 16,
            "componentType" : 5126,
            "count" : 64,
            "max" : [
                3.951383590698242,
                3.780928373336792,
                1.100367546081543
            ],
            "min" : [
                -3.951383590698242,
                -3.780928373336792,
                -1.100367546081543
            ],
            "type" : "VEC3"
        },
        {
            "bufferView" : 17,
            "componentType" : 5126,
            "count" : 64,
            "type" : "VEC3"
        },
        {
            "bufferView" : 18,
            "componentType" : 5126,
            "count" : 64,
            "type" : "VEC2"
        },
        {
            "bufferView" : 19,
            "componentType" : 5123,
            "count" : 96,
            "type" : "SCALAR"
        },
        {
            "bufferView" : 20,
            "componentType" : 5126,
            "count" : 192,
            "max" : [
                4.474339485168457,
                0.14681005477905273,
                0.15123558044433594
            ],
            "min" : [
                -4.474339485168457,
                -0.14681005477905273,
                -0.15123462677001953
            ],
            "type" : "VEC3"
        },
        {
            "bufferView" : 21,
            "componentType" : 5126,
            "count" : 192,
            "type" : "VEC3"
        },
        {
            "bufferView" : 22,
            "componentType" : 5126,
            "count" : 192,
            "type" : "VEC2"
        },
        {
            "bufferView" : 23,
            "componentType" : 5123,
            "count" : 372,
            "type" : "SCALAR"
        },
        {
            "bufferView" : 24,
            "componentType" : 5126,
            "count" : 128,
            "max" : [
                0.22369572520256042,
                4.281467437744141,
                0.2236957550048828
            ],
            "min" : [
                -0.22369572520256042,
                -4.281467437744141,
                -0.2236957550048828
            ],
            "type" : "VEC3"
        },
        {
            "bufferView" : 25,
            "componentType" : 5126,
            "count" : 128,
            "type" : "VEC3"
        },
        {
            "bufferView" : 26,
            "componentType" : 5126,
            "count" : 128,
            "type" : "VEC2"
        },
        {
            "bufferView" : 27,
            "componentType" : 5123,
            "count" : 192,
            "type" : "SCALAR"
        },
        {
            "bufferView" : 28,
            "componentType" : 5126,
            "count" : 5708,
            "max" : [
                4.345544338226318,
                4.8787760734558105,
                10.588616371154785
            ],
            "min" : [
                -4.345544338226318,
                -4.8787760734558105,
                -10.588617324829102
            ],
            "type" : "VEC3"
        },
        {
            "bufferView" : 29,
            "componentType" : 5126,
            "count" : 5708,
            "type" : "VEC3"
        },
        {
            "bufferView" : 30,
            "componentType" : 5126,
            "count" : 5708,
            "type" : "VEC2"
        },
        {
            "bufferView" : 31,
            "componentType" : 5123,
            "count" : 8868,
            "type" : "SCALAR"
        }
    ],
    "bufferViews" : [
        {
            "buffer" : 0,
            "byteLength" : 5688,
            "byteOffset" : 0
        },
        {
            "buffer" : 0,
            "byteLength" : 5688,
            "byteOffset" : 5688
        },
        {
            "buffer" : 0,
            "byteLength" : 3792,
            "byteOffset" : 11376
        },
        {
            "buffer" : 0,
            "byteLength" : 1584,
            "byteOffset" : 15168
        },
        {
            "buffer" : 0,
            "byteLength" : 2304,
            "byteOffset" : 16752
        },
        {
            "buffer" : 0,
            "byteLength" : 2304,
            "byteOffset" : 19056
        },
        {
            "buffer" : 0,
            "byteLength" : 1536,
            "byteOffset" : 21360
        },
        {
            "buffer" : 0,
            "byteLength" : 744,
            "byteOffset" : 22896
        },
        {
            "buffer" : 0,
            "byteLength" : 5376,
            "byteOffset" : 23640
        },
        {
            "buffer" : 0,
            "byteLength" : 5376,
            "byteOffset" : 29016
        },
        {
            "buffer" : 0,
            "byteLength" : 3584,
            "byteOffset" : 34392
        },
        {
            "buffer" : 0,
            "byteLength" : 1512,
            "byteOffset" : 37976
        },
        {
            "buffer" : 0,
            "byteLength" : 288,
            "byteOffset" : 39488
        },
        {
            "buffer" : 0,
            "byteLength" : 288,
            "byteOffset" : 39776
        },
        {
            "buffer" : 0,
            "byteLength" : 192,
            "byteOffset" : 40064
        },
        {
            "buffer" : 0,
            "byteLength" : 72,
            "byteOffset" : 40256
        },
        {
            "buffer" : 0,
            "byteLength" : 768,
            "byteOffset" : 40328
        },
        {
            "buffer" : 0,
            "byteLength" : 768,
            "byteOffset" : 41096
        },
        {
            "buffer" : 0,
            "byteLength" : 512,
            "byteOffset" : 41864
        },
        {
            "buffer" : 0,
            "byteLength" : 192,
            "byteOffset" : 42376
        },
        {
            "buffer" : 0,
            "byteLength" : 2304,
            "byteOffset" : 42568
        },
        {
            "buffer" : 0,
            "byteLength" : 2304,
            "byteOffset" : 44872
        },
        {
            "buffer" : 0,
            "byteLength" : 1536,
            "byteOffset" : 47176
        },
        {
            "buffer" : 0,
            "byteLength" : 744,
            "byteOffset" : 48712
        },
        {
            "buffer" : 0,
            "byteLength" : 1536,
            "byteOffset" : 49456
        },
        {
            "buffer" : 0,
            "byteLength" : 1536,
            "byteOffset" : 50992
        },
        {
            "buffer" : 0,
            "byteLength" : 1024,
            "byteOffset" : 52528
        },
        {
            "buffer" : 0,
            "byteLength" : 384,
            "byteOffset" : 53552
        },
        {
            "buffer" : 0,
            "byteLength" : 68496,
            "byteOffset" : 53936
        },
        {
            "buffer" : 0,
            "byteLength" : 68496,
            "byteOffset" : 122432
        },
        {
            "buffer" : 0,
            "byteLength" : 45664,
            "byteOffset" : 190928
        },
        {
            "buffer" : 0,
            "byteLength" : 17736,
            "byteOffset" : 236592
        }
    ],
    "buffers" : [
        {
            "byteLength" : 254328,
            "uri" : "data:application/octet-stream;base64,"
        }
    ]
}
