{
    "asset" : {
        "generator" : "Khronos glTF Blender I/O v1.6.16",
        "version" : "2.0"
    },
    "scene" : 0,
    "scenes" : [
        {
            "name" : "Scene",
            "nodes" : [
                6
            ]
        }
    ],
    "nodes" : [
        {
            "mesh" : 0,
            "name" : "Gasolina",
            "translation" : [
                -0.9499999284744263,
                1.100000023841858,
                2.1000001430511475
            ]
        },
        {
            "mesh" : 1,
            "name" : "Orugas"
        },
        {
            "mesh" : 2,
            "name" : "Antena",
            "translation" : [
                -0.04999994859099388,
                -1.9179816246032715,
                0.3999998867511749
            ]
        },
        {
            "mesh" : 3,
            "name" : "Mira",
            "translation" : [
                0,
                0.3250004053115845,
                -1.1150000095367432
            ]
        },
        {
            "children" : [
                3
            ],
            "mesh" : 4,
            "name" : "Canion",
            "translation" : [
                0,
                -0.24298155307769775,
                -2.4850006103515625
            ]
        },
        {
            "children" : [
                2,
                4
            ],
            "mesh" : 5,
            "name" : "Torreta",
            "translation" : [
                -0.00013393830158747733,
                1.9179816246032715,
                -0.3999998867511749
            ]
        },
        {
            "children" : [
                0,
                1,
                5
            ],
            "mesh" : 6,
            "name" : "Chasis"
        }
    ],
    "materials" : [
        {
            "doubleSided" : true,
            "name" : "Material",
            "pbrMetallicRoughness" : {
                "baseColorFactor" : [
                    0.800000011920929,
                    0.800000011920929,
                    0.800000011920929,
                    1
                ],
                "metallicFactor" : 0,
                "roughnessFactor" : 0.4000000059604645
            }
        }
    ],
    "meshes" : [
        {
            "name" : "Cube.003",
            "primitives" : [
                {
                    "attributes" : {
                        "POSITION" : 0,
                        "NORMAL" : 1,
                        "TEXCOORD_0" : 2
                    },
                    "indices" : 3
                }
            ]
        },
        {
            "name" : "Cube.001",
            "primitives" : [
                {
                    "attributes" : {
                        "POSITION" : 4,
                        "NORMAL" : 5,
                        "TEXCOORD_0" : 6
                    },
                    "indices" : 7
                }
            ]
        },
        {
            "name" : "Cylinder.002",
            "primitives" : [
                {
                    "attributes" : {
                        "POSITION" : 8,
                        "NORMAL" : 9,
                        "TEXCOORD_0" : 10
                    },
                    "indices" : 11
                }
            ]
        },
        {
            "name" : "Cube.002",
            "primitives" : [
                {
                    "attributes" : {
                        "POSITION" : 12,
                        "NORMAL" : 13,
                        "TEXCOORD_0" : 14
                    },
                    "indices" : 15
                }
            ]
        },
        {
            "name" : "Cylinder.001",
            "primitives" : [
                {
                    "attributes" : {
                        "POSITION" : 16,
                        "NORMAL" : 17,
                        "TEXCOORD_0" : 18
                    },
                    "indices" : 19
                }
            ]
        },
        {
            "name" : "Sphere",
            "primitives" : [
                {
                    "attributes" : {
                        "POSITION" : 20,
                        "NORMAL" : 21,
                        "TEXCOORD_0" : 22
                    },
                    "indices" : 23
                }
            ]
        },
        {
            "name" : "Cube",
            "primitives" : [
                {
                    "attributes" : {
                        "POSITION" : 24,
                        "NORMAL" : 25,
                        "TEXCOORD_0" : 26
                    },
                    "indices" : 27,
                    "material" : 0
                }
            ]
        }
    ],
    "accessors" : [
        {
            "bufferView" : 0,
            "componentType" : 5126,
            "count" : 24,
            "max" : [
                0.49999988079071045,
                0.25,
                0.5
            ],
            "min" : [
                -0.5000001192092896,
                -0.25,
                -0.5
            ],
            "type" : "VEC3"
        },
        {
            "bufferView" : 1,
            "componentType" : 5126,
            "count" : 24,
            "type" : "VEC3"
        },
        {
            "bufferView" : 2,
            "componentType" : 5126,
            "count" : 24,
            "type" : "VEC2"
        },
        {
            "bufferView" : 3,
            "componentType" : 5123,
            "count" : 36,
            "type" : "SCALAR"
        },
        {
            "bufferView" : 4,
            "componentType" : 5126,
            "count" : 48,
            "max" : [
                2.8499999046325684,
                0.19999992847442627,
                2
            ],
            "min" : [
                -2.75,
                -1.2999999523162842,
                -2
            ],
            "type" : "VEC3"
        },
        {
            "bufferView" : 5,
            "componentType" : 5126,
            "count" : 48,
            "type" : "VEC3"
        },
        {
            "bufferView" : 6,
            "componentType" : 5126,
            "count" : 48,
            "type" : "VEC2"
        },
        {
            "bufferView" : 7,
            "componentType" : 5123,
            "count" : 72,
            "type" : "SCALAR"
        },
        {
            "bufferView" : 8,
            "componentType" : 5126,
            "count" : 192,
            "max" : [
                0.11093832552433014,
                3.8513009548187256,
                1.448833703994751
            ],
            "min" : [
                -0.01093842089176178,
                2.252591133117676,
                0.37967807054519653
            ],
            "type" : "VEC3"
        },
        {
            "bufferView" : 9,
            "componentType" : 5126,
            "count" : 192,
            "type" : "VEC3"
        },
        {
            "bufferView" : 10,
            "componentType" : 5126,
            "count" : 192,
            "type" : "VEC2"
        },
        {
            "bufferView" : 11,
            "componentType" : 5123,
            "count" : 372,
            "type" : "SCALAR"
        },
        {
            "bufferView" : 12,
            "componentType" : 5126,
            "count" : 24,
            "max" : [
                0.03839999437332153,
                0.12800002098083496,
                0.12800002098083496
            ],
            "min" : [
                -0.03839999809861183,
                -0.12800002098083496,
                -0.12800025939941406
            ],
            "type" : "VEC3"
        },
        {
            "bufferView" : 13,
            "componentType" : 5126,
            "count" : 24,
            "type" : "VEC3"
        },
        {
            "bufferView" : 14,
            "componentType" : 5126,
            "count" : 24,
            "type" : "VEC2"
        },
        {
            "bufferView" : 15,
            "componentType" : 5123,
            "count" : 36,
            "type" : "SCALAR"
        },
        {
            "bufferView" : 16,
            "componentType" : 5126,
            "count" : 436,
            "max" : [
                0.3199999928474426,
                0.34500038623809814,
                1.4050008058547974
            ],
            "min" : [
                -0.3199999928474426,
                -0.299080491065979,
                -1.234999418258667
            ],
            "type" : "VEC3"
        },
        {
            "bufferView" : 17,
            "componentType" : 5126,
            "count" : 436,
            "type" : "VEC3"
        },
        {
            "bufferView" : 18,
            "componentType" : 5126,
            "count" : 436,
            "type" : "VEC2"
        },
        {
            "bufferView" : 19,
            "componentType" : 5123,
            "count" : 756,
            "type" : "SCALAR"
        },
        {
            "bufferView" : 20,
            "componentType" : 5126,
            "count" : 1024,
            "max" : [
                1.5999995470046997,
                0.6820180416107178,
                1.599998950958252
            ],
            "min" : [
                -1.5999985933303833,
                -0.9179819226264954,
                -1.599998116493225
            ],
            "type" : "VEC3"
        },
        {
            "bufferView" : 21,
            "componentType" : 5126,
            "count" : 1024,
            "type" : "VEC3"
        },
        {
            "bufferView" : 22,
            "componentType" : 5126,
            "count" : 1024,
            "type" : "VEC2"
        },
        {
            "bufferView" : 23,
            "componentType" : 5123,
            "count" : 1530,
            "type" : "SCALAR"
        },
        {
            "bufferView" : 24,
            "componentType" : 5126,
            "count" : 24,
            "max" : [
                2.049999952316284,
                1,
                3
            ],
            "min" : [
                -2.049999952316284,
                -1,
                -3
            ],
            "type" : "VEC3"
        },
        {
            "bufferView" : 25,
            "componentType" : 5126,
            "count" : 24,
            "type" : "VEC3"
        },
        {
            "bufferView" : 26,
            "componentType" : 5126,
            "count" : 24,
            "type" : "VEC2"
        },
        {
            "bufferView" : 27,
            "componentType" : 5123,
            "count" : 36,
            "type" : "SCALAR"
        }
    ],
    "bufferViews" : [
        {
            "buffer" : 0,
            "byteLength" : 288,
            "byteOffset" : 0
        },
        {
            "buffer" : 0,
            "byteLength" : 288,
            "byteOffset" : 288
        },
        {
            "buffer" : 0,
            "byteLength" : 192,
            "byteOffset" : 576
        },
        {
            "buffer" : 0,
            "byteLength" : 72,
            "byteOffset" : 768
        },
        {
            "buffer" : 0,
            "byteLength" : 576,
            "byteOffset" : 840
        },
        {
            "buffer" : 0,
            "byteLength" : 576,
            "byteOffset" : 1416
        },
        {
            "buffer" : 0,
            "byteLength" : 384,
            "byteOffset" : 1992
        },
        {
            "buffer" : 0,
            "byteLength" : 144,
            "byteOffset" : 2376
        },
        {
            "buffer" : 0,
            "byteLength" : 2304,
            "byteOffset" : 2520
        },
        {
            "buffer" : 0,
            "byteLength" : 2304,
            "byteOffset" : 4824
        },
        {
            "buffer" : 0,
            "byteLength" : 1536,
            "byteOffset" : 7128
        },
        {
            "buffer" : 0,
            "byteLength" : 744,
            "byteOffset" : 8664
        },
        {
            "buffer" : 0,
            "byteLength" : 288,
            "byteOffset" : 9408
        },
        {
            "buffer" : 0,
            "byteLength" : 288,
            "byteOffset" : 9696
        },
        {
            "buffer" : 0,
            "byteLength" : 192,
            "byteOffset" : 9984
        },
        {
            "buffer" : 0,
            "byteLength" : 72,
            "byteOffset" : 10176
        },
        {
            "buffer" : 0,
            "byteLength" : 5232,
            "byteOffset" : 10248
        },
        {
            "buffer" : 0,
            "byteLength" : 5232,
            "byteOffset" : 15480
        },
        {
            "buffer" : 0,
            "byteLength" : 3488,
            "byteOffset" : 20712
        },
        {
            "buffer" : 0,
            "byteLength" : 1512,
            "byteOffset" : 24200
        },
        {
            "buffer" : 0,
            "byteLength" : 12288,
            "byteOffset" : 25712
        },
        {
            "buffer" : 0,
            "byteLength" : 12288,
            "byteOffset" : 38000
        },
        {
            "buffer" : 0,
            "byteLength" : 8192,
            "byteOffset" : 50288
        },
        {
            "buffer" : 0,
            "byteLength" : 3060,
            "byteOffset" : 58480
        },
        {
            "buffer" : 0,
            "byteLength" : 288,
            "byteOffset" : 61540
        },
        {
            "buffer" : 0,
            "byteLength" : 288,
            "byteOffset" : 61828
        },
        {
            "buffer" : 0,
            "byteLength" : 192,
            "byteOffset" : 62116
        },
        {
            "buffer" : 0,
            "byteLength" : 72,
            "byteOffset" : 62308
        }
    ],
    "buffers" : [
        {
            "byteLength" : 62380,
            "uri" : "data:application/octet-stream;base64,"
        }
    ]
}
