{
  "accessors": [
    {
      "bufferView": 2,
      "componentType": 5126,
      "count": 3348,
      "max": [
        0.29201200604438782,
        0.29201200604438782,
        2.2963199615478516
      ],
      "min": [
        -0.29201200604438782,
        -0.29201200604438782,
        -0.011021999642252922
      ],
      "type": "VEC3"
    },
    {
      "bufferView": 2,
      "byteOffset": 40176,
      "componentType": 5126,
      "count": 3348,
      "max": [
        0.99961638450622559,
        0.99955600500106812,
        0.98514789342880249
      ],
      "min": [
        -0.99955600500106812,
        -0.99957948923110962,
        -1
      ],
      "type": "VEC3"
    },
    {
      "bufferView": 3,
      "componentType": 5126,
      "count": 3348,
      "max": [
        0.9999961256980896,
        0.99999839067459106,
        0.9990958571434021,
        1
      ],
      "min": [
        -0.99998623132705688,
        -1,
        -0.99769240617752075,
        -1
      ],
      "type": "VEC4"
    },
    {
      "bufferView": 1,
      "componentType": 5126,
      "count": 3348,
      "max": [
        0.97627097368240356,
        0.99551200866699219
      ],
      "min": [
        0.025699000805616379,
        0.0020989999175071716
      ],
      "type": "VEC2"
    },
    {
      "bufferView": 0,
      "componentType": 5125,
      "count": 7872,
      "max": [
        3347
      ],
      "min": [
        0
      ],
      "type": "SCALAR"
    }
  ],
  "asset": {
    "extras": {
      "author": "inether (https://sketchfab.com/xxadventusxx)",
      "license": "CC-BY-SA-4.0 (http://creativecommons.org/licenses/by-sa/4.0/)",
      "source": "https://sketchfab.com/3d-models/tank-shell-bullet-f3bf44d02cf64d669e4e44ae8b95e803",
      "title": "Tank Shell (bullet)"
    },
    "generator": "Sketchfab-8.34.0",
    "version": "2.0"
  },
  "bufferViews": [
    {
      "buffer": 0,
      "byteLength": 31488,
      "byteOffset": 0,
      "name": "floatBufferViews",
      "target": 34963
    },
    {
      "buffer": 0,
      "byteLength": 26784,
      "byteOffset": 31488,
      "byteStride": 8,
      "name": "floatBufferViews",
      "target": 34962
    },
    {
      "buffer": 0,
      "byteLength": 80352,
      "byteOffset": 58272,
      "byteStride": 12,
      "name": "floatBufferViews",
      "target": 34962
    },
    {
      "buffer": 0,
      "byteLength": 53568,
      "byteOffset": 138624,
      "byteStride": 16,
      "name": "floatBufferViews",
      "target": 34962
    }
  ],
  "buffers": [
    {
      "byteLength": 192192,
      "uri": "scene.bin"
    }
  ],
  "images": [
    {
      "uri": "textures/null_baseColor.png"
    },
    {
      "uri": "textures/null_metallicRoughness.png"
    },
    {
      "uri": "textures/null_normal.png"
    }
  ],
  "materials": [
    {
      "doubleSided": false,
      "emissiveFactor": [
        0,
        0,
        0
      ],
      "name": "null",
      "normalTexture": {
        "index": 2,
        "scale": 1,
        "texCoord": 0
      },
      "occlusionTexture": {
        "index": 1,
        "strength": 1,
        "texCoord": 0
      },
      "pbrMetallicRoughness": {
        "baseColorFactor": [
          1,
          1,
          1,
          1
        ],
        "baseColorTexture": {
          "index": 0,
          "texCoord": 0
        },
        "metallicFactor": 1,
        "metallicRoughnessTexture": {
          "index": 1,
          "texCoord": 0
        },
        "roughnessFactor": 1
      }
    }
  ],
  "meshes": [
    {
      "primitives": [
        {
          "attributes": {
            "NORMAL": 1,
            "POSITION": 0,
            "TANGENT": 2,
            "TEXCOORD_0": 3
          },
          "indices": 4,
          "material": 0,
          "mode": 4
        }
      ]
    }
  ],
  "nodes": [
    {
      "children": [
        1
      ],
      "name": "RootNode (gltf orientation matrix)",
      "rotation": [
        -0.70710678118654746,
        -0,
        -0,
        0.70710678118654757
      ]
    },
    {
      "children": [
        2
      ],
      "matrix": [
        1,
        0,
        0,
        0,
        0,
        1,
        1.6081226229577292e-16,
        0,
        0,
        -1.6081226229577292e-16,
        1,
        0,
        0,
        1.8375183356644049e-16,
        0,
        1
      ],
      "name": "RootNode (model correction matrix)"
    },
    {
      "children": [
        3
      ],
      "name": "redkin_shell.obj.cleaner.materialmerger.gles"
    },
    {
      "mesh": 0,
      "name": ""
    }
  ],
  "samplers": [
    {
      "magFilter": 9729,
      "minFilter": 9987,
      "wrapS": 10497,
      "wrapT": 10497
    }
  ],
  "scene": 0,
  "scenes": [
    {
      "name": "OSG_Scene",
      "nodes": [
        0
      ]
    }
  ],
  "textures": [
    {
      "sampler": 0,
      "source": 0
    },
    {
      "sampler": 0,
      "source": 1
    },
    {
      "sampler": 0,
      "source": 2
    }
  ]
}

