{
  "accessors": [
    {
      "bufferView": 2,
      "componentType": 5126,
      "count": 441,
      "max": [
        0.82031691074371338,
        1.9990226030349731,
        1.5388373136520386
      ],
      "min": [
        -1.1765847206115723,
        0.0021207770332694054,
        -1.4075442552566528
      ],
      "type": "VEC3"
    },
    {
      "bufferView": 2,
      "byteOffset": 5292,
      "componentType": 5126,
      "count": 441,
      "max": [
        0.96089327335357666,
        0.96089327335357666,
        1
      ],
      "min": [
        -0.96089327335357666,
        -0.96089327335357666,
        -1
      ],
      "type": "VEC3"
    },
    {
      "bufferView": 3,
      "componentType": 5126,
      "count": 441,
      "max": [
        1,
        0.99907761812210083,
        0.99112272262573242,
        1
      ],
      "min": [
        -0.97868311405181885,
        -0.99907755851745605,
        -0.98817402124404907,
        -1
      ],
      "type": "VEC4"
    },
    {
      "bufferView": 1,
      "componentType": 5126,
      "count": 441,
      "max": [
        0.99808371067047119,
        0.99800443649291992
      ],
      "min": [
        0.0019630719907581806,
        0.0019162662792950869
      ],
      "type": "VEC2"
    },
    {
      "bufferView": 0,
      "componentType": 5125,
      "count": 1008,
      "max": [
        440
      ],
      "min": [
        0
      ],
      "type": "SCALAR"
    },
    {
      "bufferView": 2,
      "byteOffset": 10584,
      "componentType": 5126,
      "count": 400,
      "max": [
        0.85189807415008545,
        2.0306034088134766,
        1.0714426040649414
      ],
      "min": [
        -1.2081657648086548,
        -0.029460407793521881,
        -1.1123678684234619
      ],
      "type": "VEC3"
    },
    {
      "bufferView": 2,
      "byteOffset": 15384,
      "componentType": 5126,
      "count": 400,
      "max": [
        0.74780994653701782,
        0.74780994653701782,
        0.99989628791809082
      ],
      "min": [
        -0.74780994653701782,
        -0.74780994653701782,
        -0.99986326694488525
      ],
      "type": "VEC3"
    },
    {
      "bufferView": 3,
      "byteOffset": 7056,
      "componentType": 5126,
      "count": 400,
      "max": [
        0.91858559846878052,
        0.99999815225601196,
        0.73892384767532349,
        1
      ],
      "min": [
        -0.99999970197677612,
        -0.9999997615814209,
        -0.74981129169464111,
        1
      ],
      "type": "VEC4"
    },
    {
      "bufferView": 1,
      "byteOffset": 3528,
      "componentType": 5126,
      "count": 400,
      "max": [
        0.85698127746582031,
        0.87799417972564697
      ],
      "min": [
        0.0019149332074448466,
        0.0019173739710822701
      ],
      "type": "VEC2"
    },
    {
      "bufferView": 0,
      "byteOffset": 4032,
      "componentType": 5125,
      "count": 1152,
      "max": [
        399
      ],
      "min": [
        0
      ],
      "type": "SCALAR"
    },
    {
      "bufferView": 2,
      "byteOffset": 20184,
      "componentType": 5126,
      "count": 420,
      "max": [
        1.7932096719741821,
        1.1699491739273071,
        1.4819415807723999
      ],
      "min": [
        0.69162964820861816,
        0.83119428157806396,
        -1.2083319425582886
      ],
      "type": "VEC3"
    },
    {
      "bufferView": 2,
      "byteOffset": 25224,
      "componentType": 5126,
      "count": 420,
      "max": [
        0.99979221820831299,
        1,
        0.99975776672363281
      ],
      "min": [
        -0.99981462955474854,
        -1,
        -0.99976402521133423
      ],
      "type": "VEC3"
    },
    {
      "bufferView": 3,
      "byteOffset": 13456,
      "componentType": 5126,
      "count": 420,
      "max": [
        0.99964839220046997,
        1,
        0.99136501550674438,
        1
      ],
      "min": [
        -0.85057568550109863,
        -1,
        -0.99981462955474854,
        1
      ],
      "type": "VEC4"
    },
    {
      "bufferView": 1,
      "byteOffset": 6728,
      "componentType": 5126,
      "count": 420,
      "max": [
        0.82118505239486694,
        0.8165820837020874
      ],
      "min": [
        0.0019131898880004883,
        0.0019135476322844625
      ],
      "type": "VEC2"
    },
    {
      "bufferView": 0,
      "byteOffset": 8640,
      "componentType": 5125,
      "count": 1164,
      "max": [
        419
      ],
      "min": [
        0
      ],
      "type": "SCALAR"
    }
  ],
  "asset": {
    "extras": {
      "author": "Batuhan13 (https://sketchfab.com/Batuhan13)",
      "license": "CC-BY-4.0 (http://creativecommons.org/licenses/by/4.0/)",
      "source": "https://sketchfab.com/3d-models/beer-mug-c324ddbc2dec43288993f7241a0f63d4",
      "title": "Beer Mug"
    },
    "generator": "Sketchfab-7.27.0",
    "version": "2.0"
  },
  "bufferViews": [
    {
      "buffer": 0,
      "byteLength": 13296,
      "byteOffset": 0,
      "name": "floatBufferViews",
      "target": 34963
    },
    {
      "buffer": 0,
      "byteLength": 10088,
      "byteOffset": 13296,
      "byteStride": 8,
      "name": "floatBufferViews",
      "target": 34962
    },
    {
      "buffer": 0,
      "byteLength": 30264,
      "byteOffset": 23384,
      "byteStride": 12,
      "name": "floatBufferViews",
      "target": 34962
    },
    {
      "buffer": 0,
      "byteLength": 20176,
      "byteOffset": 53648,
      "byteStride": 16,
      "name": "floatBufferViews",
      "target": 34962
    }
  ],
  "buffers": [
    {
      "byteLength": 73824,
      "uri": "scene.bin"
    }
  ],
  "images": [
    {
      "uri": "textures/TT_checker_1024x1024_UV_GRID_baseColor.png"
    },
    {
      "uri": "textures/TT_checker_1024x1024_UV_GRID_metallicRoughness.png"
    },
    {
      "uri": "textures/TT_checker_1024x1024_UV_GRID_normal.png"
    }
  ],
  "materials": [
    {
      "doubleSided": true,
      "emissiveFactor": [
        0,
        0,
        0
      ],
      "name": "TT_checker_1024x1024_UV_GRID",
      "normalTexture": {
        "index": 2,
        "scale": 1,
        "texCoord": 0
      },
      "pbrMetallicRoughness": {
        "baseColorFactor": [
          1,
          1,
          1,
          1
        ],
        "baseColorTexture": {
          "index": 0,
          "texCoord": 0
        },
        "metallicFactor": 1,
        "metallicRoughnessTexture": {
          "index": 1,
          "texCoord": 0
        },
        "roughnessFactor": 1
      }
    }
  ],
  "meshes": [
    {
      "name": "2_low_TT_checker_1024x1024_UV_GRID_0",
      "primitives": [
        {
          "attributes": {
            "NORMAL": 1,
            "POSITION": 0,
            "TANGENT": 2,
            "TEXCOORD_0": 3
          },
          "indices": 4,
          "material": 0,
          "mode": 4
        }
      ]
    },
    {
      "name": "3_low_TT_checker_1024x1024_UV_GRID_0",
      "primitives": [
        {
          "attributes": {
            "NORMAL": 6,
            "POSITION": 5,
            "TANGENT": 7,
            "TEXCOORD_0": 8
          },
          "indices": 9,
          "material": 0,
          "mode": 4
        }
      ]
    },
    {
      "name": "1_low_TT_checker_1024x1024_UV_GRID_0",
      "primitives": [
        {
          "attributes": {
            "NORMAL": 11,
            "POSITION": 10,
            "TANGENT": 12,
            "TEXCOORD_0": 13
          },
          "indices": 14,
          "material": 0,
          "mode": 4
        }
      ]
    }
  ],
  "nodes": [
    {
      "children": [
        1
      ],
      "name": "RootNode (gltf orientation matrix)",
      "rotation": [
        -0.70710678118654746,
        -0,
        -0,
        0.70710678118654757
      ]
    },
    {
      "children": [
        2
      ],
      "name": "RootNode (model correction matrix)"
    },
    {
      "children": [
        3
      ],
      "matrix": [
        1,
        0,
        0,
        0,
        0,
        0,
        1,
        0,
        0,
        -1,
        0,
        0,
        0,
        0,
        0,
        1
      ],
      "name": "BeerMugL.fbx"
    },
    {
      "children": [
        4,
        6,
        8
      ],
      "name": "RootNode"
    },
    {
      "children": [
        5
      ],
      "matrix": [
        100,
        0,
        0,
        0,
        0,
        -1.6292067939183141e-05,
        -99.999999999998678,
        0,
        0,
        99.999999999998678,
        -1.6292067939183141e-05,
        0,
        0,
        0,
        0,
        1
      ],
      "name": "2_low"
    },
    {
      "mesh": 0,
      "name": "2_low_TT_checker_1024x1024_UV_GRID_0"
    },
    {
      "children": [
        7
      ],
      "matrix": [
        100,
        0,
        0,
        0,
        0,
        -1.6292067939183141e-05,
        -99.999999999998678,
        0,
        0,
        99.999999999998678,
        -1.6292067939183141e-05,
        0,
        0,
        0,
        0,
        1
      ],
      "name": "3_low"
    },
    {
      "mesh": 1,
      "name": "3_low_TT_checker_1024x1024_UV_GRID_0"
    },
    {
      "children": [
        9
      ],
      "matrix": [
        100,
        0,
        0,
        0,
        0,
        -1.6292067939183141e-05,
        -99.999999999998678,
        0,
        0,
        99.999999999998678,
        -1.6292067939183141e-05,
        0,
        0,
        0,
        0,
        1
      ],
      "name": "1_low"
    },
    {
      "mesh": 2,
      "name": "1_low_TT_checker_1024x1024_UV_GRID_0"
    }
  ],
  "samplers": [
    {
      "magFilter": 9729,
      "minFilter": 9987,
      "wrapS": 10497,
      "wrapT": 10497
    }
  ],
  "scene": 0,
  "scenes": [
    {
      "name": "OSG_Scene",
      "nodes": [
        0
      ]
    }
  ],
  "textures": [
    {
      "sampler": 0,
      "source": 0
    },
    {
      "sampler": 0,
      "source": 1
    },
    {
      "sampler": 0,
      "source": 2
    }
  ]
}

