{
    "asset" : {
        "generator" : "Khronos glTF Blender I/O v1.6.16",
        "version" : "2.0"
    },
    "scene" : 0,
    "scenes" : [
        {
            "name" : "Scene",
            "nodes" : [
                7
            ]
        }
    ],
    "nodes" : [
        {
            "mesh" : 0,
            "name" : "Barandas",
            "scale" : [
                0.1144593358039856,
                0.1144593358039856,
                0.1144593358039856
            ],
            "translation" : [
                -0.0073795318603515625,
                0.0012280941009521484,
                -0.03179895877838135
            ]
        },
        {
            "mesh" : 1,
            "name" : "Chinchulin",
            "rotation" : [
                0.6773619651794434,
                0,
                0,
                0.7356499433517456
            ],
            "translation" : [
                -0.0073795318603515625,
                -0.5913849472999573,
                1.4074040651321411
            ]
        },
        {
            "mesh" : 2,
            "name" : "Corona",
            "scale" : [
                10.930593490600586,
                10.930593490600586,
                10.930593490600586
            ],
            "translation" : [
                -0.0073795318603515625,
                6.712855339050293,
                0.0013933181762695312
            ]
        },
        {
            "children" : [
                2
            ],
            "mesh" : 3,
            "name" : "PuntaMastil",
            "scale" : [
                0.5199840664863586,
                1.33073890209198,
                0.5199840664863586
            ],
            "translation" : [
                0.02282571792602539,
                64.80180358886719,
                -0.0004392806440591812
            ]
        },
        {
            "mesh" : 4,
            "name" : "Vela",
            "rotation" : [
                -0.08715572208166122,
                0,
                0,
                0.9961947202682495
            ],
            "translation" : [
                -0.019700050354003906,
                0.11623275279998779,
                0.8552469611167908
            ]
        },
        {
            "children" : [
                4
            ],
            "mesh" : 5,
            "name" : "SoporteVela",
            "rotation" : [
                0.7071068286895752,
                0,
                0,
                0.7071068286895752
            ],
            "scale" : [
                2.418534517288208,
                2.418534517288208,
                7.374989032745361
            ],
            "translation" : [
                -0.007379621267318726,
                60.23735046386719,
                0.7816042304039001
            ]
        },
        {
            "children" : [
                3,
                5
            ],
            "mesh" : 6,
            "name" : "Mastil",
            "scale" : [
                0.4251629710197449,
                0.13534747064113617,
                0.4251629710197449
            ],
            "translation" : [
                -0.0073795318603515625,
                -1.9663581848144531,
                -10.971578598022461
            ]
        },
        {
            "children" : [
                0,
                1,
                6
            ],
            "mesh" : 7,
            "name" : "Cuerpo"
        }
    ],
    "meshes" : [
        {
            "name" : "Cube.005",
            "primitives" : [
                {
                    "attributes" : {
                        "POSITION" : 0,
                        "NORMAL" : 1,
                        "TEXCOORD_0" : 2
                    },
                    "indices" : 3
                }
            ]
        },
        {
            "name" : "Cylinder.005",
            "primitives" : [
                {
                    "attributes" : {
                        "POSITION" : 4,
                        "NORMAL" : 5,
                        "TEXCOORD_0" : 6
                    },
                    "indices" : 7
                }
            ]
        },
        {
            "name" : "Cylinder.003",
            "primitives" : [
                {
                    "attributes" : {
                        "POSITION" : 8,
                        "NORMAL" : 9,
                        "TEXCOORD_0" : 10
                    },
                    "indices" : 11
                }
            ]
        },
        {
            "name" : "Cube",
            "primitives" : [
                {
                    "attributes" : {
                        "POSITION" : 12,
                        "NORMAL" : 13,
                        "TEXCOORD_0" : 14
                    },
                    "indices" : 15
                }
            ]
        },
        {
            "name" : "Plane.001",
            "primitives" : [
                {
                    "attributes" : {
                        "POSITION" : 16,
                        "NORMAL" : 17,
                        "TEXCOORD_0" : 18
                    },
                    "indices" : 19
                }
            ]
        },
        {
            "name" : "Cylinder.004",
            "primitives" : [
                {
                    "attributes" : {
                        "POSITION" : 20,
                        "NORMAL" : 21,
                        "TEXCOORD_0" : 22
                    },
                    "indices" : 23
                }
            ]
        },
        {
            "name" : "Cylinder.001",
            "primitives" : [
                {
                    "attributes" : {
                        "POSITION" : 24,
                        "NORMAL" : 25,
                        "TEXCOORD_0" : 26
                    },
                    "indices" : 27
                }
            ]
        },
        {
            "name" : "Plane",
            "primitives" : [
                {
                    "attributes" : {
                        "POSITION" : 28,
                        "NORMAL" : 29,
                        "TEXCOORD_0" : 30
                    },
                    "indices" : 31
                }
            ]
        }
    ],
    "accessors" : [
        {
            "bufferView" : 0,
            "componentType" : 5126,
            "count" : 470,
            "max" : [
                37.623985290527344,
                35.48509216308594,
                5.050933837890625
            ],
            "min" : [
                -37.623985290527344,
                1.4033679962158203,
                -171.75392150878906
            ],
            "type" : "VEC3"
        },
        {
            "bufferView" : 1,
            "componentType" : 5126,
            "count" : 470,
            "type" : "VEC3"
        },
        {
            "bufferView" : 2,
            "componentType" : 5126,
            "count" : 470,
            "type" : "VEC2"
        },
        {
            "bufferView" : 3,
            "componentType" : 5123,
            "count" : 792,
            "type" : "SCALAR"
        },
        {
            "bufferView" : 4,
            "componentType" : 5126,
            "count" : 192,
            "max" : [
                0.5246086716651917,
                7.062735080718994,
                0.6508238911628723
            ],
            "min" : [
                -0.5921748876571655,
                -1.1311320066452026,
                -1.7045555114746094
            ],
            "type" : "VEC3"
        },
        {
            "bufferView" : 5,
            "componentType" : 5126,
            "count" : 192,
            "type" : "VEC3"
        },
        {
            "bufferView" : 6,
            "componentType" : 5126,
            "count" : 192,
            "type" : "VEC2"
        },
        {
            "bufferView" : 7,
            "componentType" : 5123,
            "count" : 372,
            "type" : "SCALAR"
        },
        {
            "bufferView" : 8,
            "componentType" : 5126,
            "count" : 448,
            "max" : [
                0.7668887972831726,
                0.0999908298254013,
                0.7668892741203308
            ],
            "min" : [
                -0.7668886780738831,
                -0.7176059484481812,
                -0.7668880820274353
            ],
            "type" : "VEC3"
        },
        {
            "bufferView" : 9,
            "componentType" : 5126,
            "count" : 448,
            "type" : "VEC3"
        },
        {
            "bufferView" : 10,
            "componentType" : 5126,
            "count" : 448,
            "type" : "VEC2"
        },
        {
            "bufferView" : 11,
            "componentType" : 5123,
            "count" : 756,
            "type" : "SCALAR"
        },
        {
            "bufferView" : 12,
            "componentType" : 5126,
            "count" : 24,
            "max" : [
                1,
                10.782892227172852,
                1
            ],
            "min" : [
                -1,
                -1.054361343383789,
                -1
            ],
            "type" : "VEC3"
        },
        {
            "bufferView" : 13,
            "componentType" : 5126,
            "count" : 24,
            "type" : "VEC3"
        },
        {
            "bufferView" : 14,
            "componentType" : 5126,
            "count" : 24,
            "type" : "VEC2"
        },
        {
            "bufferView" : 15,
            "componentType" : 5123,
            "count" : 36,
            "type" : "SCALAR"
        },
        {
            "bufferView" : 16,
            "componentType" : 5126,
            "count" : 64,
            "max" : [
                3.9052209854125977,
                1.2517528533935547,
                6.698070049285889
            ],
            "min" : [
                -3.7802674770355225,
                0.018988609313964844,
                -0.9874181747436523
            ],
            "type" : "VEC3"
        },
        {
            "bufferView" : 17,
            "componentType" : 5126,
            "count" : 64,
            "type" : "VEC3"
        },
        {
            "bufferView" : 18,
            "componentType" : 5126,
            "count" : 64,
            "type" : "VEC2"
        },
        {
            "bufferView" : 19,
            "componentType" : 5123,
            "count" : 96,
            "type" : "SCALAR"
        },
        {
            "bufferView" : 20,
            "componentType" : 5126,
            "count" : 192,
            "max" : [
                4.351321220397949,
                0.14707660675048828,
                0.1470775604248047
            ],
            "min" : [
                -4.351321697235107,
                -0.1470775604248047,
                -0.14707565307617188
            ],
            "type" : "VEC3"
        },
        {
            "bufferView" : 21,
            "componentType" : 5126,
            "count" : 192,
            "type" : "VEC3"
        },
        {
            "bufferView" : 22,
            "componentType" : 5126,
            "count" : 192,
            "type" : "VEC2"
        },
        {
            "bufferView" : 23,
            "componentType" : 5123,
            "count" : 372,
            "type" : "SCALAR"
        },
        {
            "bufferView" : 24,
            "componentType" : 5126,
            "count" : 128,
            "max" : [
                0.526141345500946,
                64.26631164550781,
                0.5261408686637878
            ],
            "min" : [
                -0.5261408686637878,
                1.0000027418136597,
                -0.5261408686637878
            ],
            "type" : "VEC3"
        },
        {
            "bufferView" : 25,
            "componentType" : 5126,
            "count" : 128,
            "type" : "VEC3"
        },
        {
            "bufferView" : 26,
            "componentType" : 5126,
            "count" : 128,
            "type" : "VEC2"
        },
        {
            "bufferView" : 27,
            "componentType" : 5123,
            "count" : 192,
            "type" : "SCALAR"
        },
        {
            "bufferView" : 28,
            "componentType" : 5126,
            "count" : 5765,
            "max" : [
                4.345544338226318,
                4.230231285095215,
                1.3729581832885742
            ],
            "min" : [
                -4.345544338226318,
                -5.527320861816406,
                -19.804275512695312
            ],
            "type" : "VEC3"
        },
        {
            "bufferView" : 29,
            "componentType" : 5126,
            "count" : 5765,
            "type" : "VEC3"
        },
        {
            "bufferView" : 30,
            "componentType" : 5126,
            "count" : 5765,
            "type" : "VEC2"
        },
        {
            "bufferView" : 31,
            "componentType" : 5123,
            "count" : 8868,
            "type" : "SCALAR"
        }
    ],
    "bufferViews" : [
        {
            "buffer" : 0,
            "byteLength" : 5640,
            "byteOffset" : 0
        },
        {
            "buffer" : 0,
            "byteLength" : 5640,
            "byteOffset" : 5640
        },
        {
            "buffer" : 0,
            "byteLength" : 3760,
            "byteOffset" : 11280
        },
        {
            "buffer" : 0,
            "byteLength" : 1584,
            "byteOffset" : 15040
        },
        {
            "buffer" : 0,
            "byteLength" : 2304,
            "byteOffset" : 16624
        },
        {
            "buffer" : 0,
            "byteLength" : 2304,
            "byteOffset" : 18928
        },
        {
            "buffer" : 0,
            "byteLength" : 1536,
            "byteOffset" : 21232
        },
        {
            "buffer" : 0,
            "byteLength" : 744,
            "byteOffset" : 22768
        },
        {
            "buffer" : 0,
            "byteLength" : 5376,
            "byteOffset" : 23512
        },
        {
            "buffer" : 0,
            "byteLength" : 5376,
            "byteOffset" : 28888
        },
        {
            "buffer" : 0,
            "byteLength" : 3584,
            "byteOffset" : 34264
        },
        {
            "buffer" : 0,
            "byteLength" : 1512,
            "byteOffset" : 37848
        },
        {
            "buffer" : 0,
            "byteLength" : 288,
            "byteOffset" : 39360
        },
        {
            "buffer" : 0,
            "byteLength" : 288,
            "byteOffset" : 39648
        },
        {
            "buffer" : 0,
            "byteLength" : 192,
            "byteOffset" : 39936
        },
        {
            "buffer" : 0,
            "byteLength" : 72,
            "byteOffset" : 40128
        },
        {
            "buffer" : 0,
            "byteLength" : 768,
            "byteOffset" : 40200
        },
        {
            "buffer" : 0,
            "byteLength" : 768,
            "byteOffset" : 40968
        },
        {
            "buffer" : 0,
            "byteLength" : 512,
            "byteOffset" : 41736
        },
        {
            "buffer" : 0,
            "byteLength" : 192,
            "byteOffset" : 42248
        },
        {
            "buffer" : 0,
            "byteLength" : 2304,
            "byteOffset" : 42440
        },
        {
            "buffer" : 0,
            "byteLength" : 2304,
            "byteOffset" : 44744
        },
        {
            "buffer" : 0,
            "byteLength" : 1536,
            "byteOffset" : 47048
        },
        {
            "buffer" : 0,
            "byteLength" : 744,
            "byteOffset" : 48584
        },
        {
            "buffer" : 0,
            "byteLength" : 1536,
            "byteOffset" : 49328
        },
        {
            "buffer" : 0,
            "byteLength" : 1536,
            "byteOffset" : 50864
        },
        {
            "buffer" : 0,
            "byteLength" : 1024,
            "byteOffset" : 52400
        },
        {
            "buffer" : 0,
            "byteLength" : 384,
            "byteOffset" : 53424
        },
        {
            "buffer" : 0,
            "byteLength" : 69180,
            "byteOffset" : 53808
        },
        {
            "buffer" : 0,
            "byteLength" : 69180,
            "byteOffset" : 122988
        },
        {
            "buffer" : 0,
            "byteLength" : 46120,
            "byteOffset" : 192168
        },
        {
            "buffer" : 0,
            "byteLength" : 17736,
            "byteOffset" : 238288
        }
    ],
    "buffers" : [
        {
            "byteLength" : 256024,
            "uri" : "data:application/octet-stream;base64,"
        }
    ]
}
