{
  "accessors": [
    {
      "bufferView": 2,
      "componentType": 5126,
      "count": 65532,
      "max": [
        -3.2069449424743652,
        8.7172660827636719,
        1.3384549617767334
      ],
      "min": [
        -4.9330058097839355,
        7.0364980697631836,
        -0.71034801006317139
      ],
      "type": "VEC3"
    },
    {
      "bufferView": 2,
      "byteOffset": 786384,
      "componentType": 5126,
      "count": 65532,
      "max": [
        0.98753964900970459,
        0.99995356798171997,
        0.99857878684997559
      ],
      "min": [
        -0.99999773502349854,
        -0.93788671493530273,
        -0.99997967481613159
      ],
      "type": "VEC3"
    },
    {
      "bufferView": 1,
      "componentType": 5126,
      "count": 65532,
      "max": [
        0.93576997518539429,
        0.97167998552322388
      ],
      "min": [
        0.019215000793337822,
        0.00039800000376999378
      ],
      "type": "VEC2"
    },
    {
      "bufferView": 0,
      "componentType": 5125,
      "count": 359907,
      "max": [
        65531
      ],
      "min": [
        0
      ],
      "type": "SCALAR"
    },
    {
      "bufferView": 2,
      "byteOffset": 1572768,
      "componentType": 5126,
      "count": 65532,
      "max": [
        -2.9148750305175781,
        8.7031564712524414,
        1.3891819715499878
      ],
      "min": [
        -4.9330058097839355,
        6.6390519142150879,
        -0.66619300842285156
      ],
      "type": "VEC3"
    },
    {
      "bufferView": 2,
      "byteOffset": 2359152,
      "componentType": 5126,
      "count": 65532,
      "max": [
        0.97857922315597534,
        0.99976801872253418,
        0.99996960163116455
      ],
      "min": [
        -0.99996799230575562,
        -0.99999558925628662,
        -0.98930186033248901
      ],
      "type": "VEC3"
    },
    {
      "bufferView": 1,
      "byteOffset": 524256,
      "componentType": 5126,
      "count": 65532,
      "max": [
        0.93480998277664185,
        0.99306601285934448
      ],
      "min": [
        5.199999941396527e-05,
        7.4000003223773092e-05
      ],
      "type": "VEC2"
    },
    {
      "bufferView": 0,
      "byteOffset": 1439628,
      "componentType": 5125,
      "count": 342927,
      "max": [
        65531
      ],
      "min": [
        0
      ],
      "type": "SCALAR"
    },
    {
      "bufferView": 2,
      "byteOffset": 3145536,
      "componentType": 5126,
      "count": 58846,
      "max": [
        -2.8515489101409912,
        8.7172660827636719,
        1.3886669874191284
      ],
      "min": [
        -4.9297919273376465,
        6.6387438774108887,
        -0.71034801006317139
      ],
      "type": "VEC3"
    },
    {
      "bufferView": 2,
      "byteOffset": 3851688,
      "componentType": 5126,
      "count": 58846,
      "max": [
        0.99998670816421509,
        0.99994850158691406,
        0.99990910291671753
      ],
      "min": [
        -0.99994832277297974,
        -0.9999690055847168,
        -0.99996203184127808
      ],
      "type": "VEC3"
    },
    {
      "bufferView": 1,
      "byteOffset": 1048512,
      "componentType": 5126,
      "count": 58846,
      "max": [
        0.93585401773452759,
        0.99994301795959473
      ],
      "min": [
        0.00011600000289035961,
        2.2000000171829015e-05
      ],
      "type": "VEC2"
    },
    {
      "bufferView": 0,
      "byteOffset": 2811336,
      "componentType": 5125,
      "count": 270234,
      "max": [
        58845
      ],
      "min": [
        0
      ],
      "type": "SCALAR"
    }
  ],
  "asset": {
    "extras": {
      "author": "The Mel Fisher Maritime Museum (https://sketchfab.com/mfmaritimemuseum)",
      "license": "CC-BY-NC-ND-4.0 (http://creativecommons.org/licenses/by-nc-nd/4.0/)",
      "source": "https://sketchfab.com/3d-models/santa-margarita-iron-round-shot-8608827b-59ef0287268645c09f30167fad375337",
      "title": "Santa Margarita Iron Round Shot 86.08.827b"
    },
    "generator": "Sketchfab-9.25.0",
    "version": "2.0"
  },
  "bufferViews": [
    {
      "buffer": 0,
      "byteLength": 3892272,
      "byteOffset": 0,
      "name": "floatBufferViews",
      "target": 34963
    },
    {
      "buffer": 0,
      "byteLength": 1519280,
      "byteOffset": 3892272,
      "byteStride": 8,
      "name": "floatBufferViews",
      "target": 34962
    },
    {
      "buffer": 0,
      "byteLength": 4557840,
      "byteOffset": 5411552,
      "byteStride": 12,
      "name": "floatBufferViews",
      "target": 34962
    }
  ],
  "buffers": [
    {
      "byteLength": 9969392,
      "uri": "scene.bin"
    }
  ],
  "extensionsUsed": [
    "KHR_materials_unlit"
  ],
  "images": [
    {
      "uri": "textures/Santa_Margarita_Iron_Shot_OBJ_baseColor.jpeg"
    }
  ],
  "materials": [
    {
      "doubleSided": true,
      "emissiveFactor": [
        0,
        0,
        0
      ],
      "extensions": {
        "KHR_materials_unlit": {}
      },
      "name": "Santa_Margarita_Iron_Shot_OBJ",
      "pbrMetallicRoughness": {
        "baseColorFactor": [
          1,
          1,
          1,
          1
        ],
        "baseColorTexture": {
          "index": 0,
          "texCoord": 0
        },
        "metallicFactor": 0,
        "roughnessFactor": 1
      }
    }
  ],
  "meshes": [
    {
      "primitives": [
        {
          "attributes": {
            "NORMAL": 1,
            "POSITION": 0,
            "TEXCOORD_0": 2
          },
          "indices": 3,
          "material": 0,
          "mode": 4
        }
      ]
    },
    {
      "primitives": [
        {
          "attributes": {
            "NORMAL": 5,
            "POSITION": 4,
            "TEXCOORD_0": 6
          },
          "indices": 7,
          "material": 0,
          "mode": 4
        }
      ]
    },
    {
      "primitives": [
        {
          "attributes": {
            "NORMAL": 9,
            "POSITION": 8,
            "TEXCOORD_0": 10
          },
          "indices": 11,
          "material": 0,
          "mode": 4
        }
      ]
    }
  ],
  "nodes": [
    {
      "children": [
        1
      ],
      "name": "RootNode (gltf orientation matrix)",
      "rotation": [
        -0.70710678118654746,
        -0,
        -0,
        0.70710678118654757
      ]
    },
    {
      "children": [
        2
      ],
      "matrix": [
        -0.053036492317914963,
        -0.99662041664123535,
        -0.062728308141231537,
        0,
        -0.64346712827682495,
        0.082144446671009064,
        -0.76105344295501709,
        0,
        0.76363414525985718,
        -1.6653345369377348e-16,
        -0.64564919471740723,
        0,
        0.58263838291168213,
        3.1681692600250244,
        6.1577715873718262,
        1
      ],
      "name": "RootNode (model correction matrix)"
    },
    {
      "children": [
        3,
        4,
        5
      ],
      "name": "Santa Margarita Iron Shot OBJ.obj.cleaner.materialmerger.gles"
    },
    {
      "mesh": 0,
      "name": ""
    },
    {
      "mesh": 1,
      "name": ""
    },
    {
      "mesh": 2,
      "name": ""
    }
  ],
  "samplers": [
    {
      "magFilter": 9729,
      "minFilter": 9987,
      "wrapS": 10497,
      "wrapT": 10497
    }
  ],
  "scene": 0,
  "scenes": [
    {
      "name": "OSG_Scene",
      "nodes": [
        0
      ]
    }
  ],
  "textures": [
    {
      "sampler": 0,
      "source": 0
    }
  ]
}

